<svg width="34" height="34" viewBox="0 0 34 34" fill="none" xmlns="http://www.w3.org/2000/svg">
<path d="M13.2685 15.1328C14.5978 17.4682 16.5318 19.4022 18.8672 20.7315L20.1195 18.9777C20.3209 18.6957 20.6187 18.4972 20.9565 18.42C21.2943 18.3427 21.6487 18.3919 21.9527 18.5583C23.9563 19.6533 26.169 20.3118 28.4452 20.4907C28.8005 20.5188 29.1321 20.6798 29.3739 20.9416C29.6158 21.2034 29.75 21.5467 29.75 21.9031V28.2242C29.7501 28.575 29.62 28.9133 29.385 29.1737C29.15 29.4341 28.8268 29.5981 28.4778 29.6338C27.727 29.7117 26.9705 29.75 26.2083 29.75C14.0817 29.75 4.25 19.9183 4.25 7.79167C4.25 7.0295 4.28825 6.273 4.36617 5.52217C4.40194 5.17324 4.56589 4.84999 4.82629 4.61498C5.08668 4.37998 5.42499 4.24992 5.77575 4.25H12.0969C12.4533 4.24996 12.7966 4.38423 13.0584 4.62606C13.3202 4.86788 13.4812 5.19948 13.5093 5.55475C13.6882 7.83104 14.3467 10.0437 15.4417 12.0473C15.6081 12.3513 15.6573 12.7057 15.58 13.0435C15.5028 13.3813 15.3043 13.6791 15.0223 13.8805L13.2685 15.1328ZM9.69567 14.2021L12.3873 12.2797C11.6234 10.6308 11.1001 8.88086 10.8332 7.08333H7.0975C7.089 7.3185 7.08475 7.55508 7.08475 7.79167C7.08333 18.3543 15.6457 26.9167 26.2083 26.9167C26.4449 26.9167 26.6815 26.9124 26.9167 26.9025V23.1667C25.1191 22.8999 23.3692 22.3766 21.7203 21.6127L19.7979 24.3043C19.0239 24.0036 18.2722 23.6485 17.5483 23.2418L17.4661 23.1951C14.6874 21.6137 12.3863 19.3126 10.8049 16.5339L10.7582 16.4517C10.3515 15.7278 9.9964 14.9761 9.69567 14.2021Z" fill="white"/>
</svg>
