<svg width="20" height="20" viewBox="0 0 20 20" fill="none" xmlns="http://www.w3.org/2000/svg">
<path d="M3.33366 12.5H5.00033V16.6666H15.0003V3.33329H5.00033V7.49996H3.33366V2.49996C3.33366 2.27895 3.42146 2.06698 3.57774 1.9107C3.73402 1.75442 3.94598 1.66663 4.16699 1.66663H15.8337C16.0547 1.66663 16.2666 1.75442 16.4229 1.9107C16.5792 2.06698 16.667 2.27895 16.667 2.49996V17.5C16.667 17.721 16.5792 17.9329 16.4229 18.0892C16.2666 18.2455 16.0547 18.3333 15.8337 18.3333H4.16699C3.94598 18.3333 3.73402 18.2455 3.57774 18.0892C3.42146 17.9329 3.33366 17.721 3.33366 17.5V12.5ZM8.33366 9.16663V6.66663L12.5003 9.99996L8.33366 13.3333V10.8333H1.66699V9.16663H8.33366Z" fill="#1C1C33"/>
</svg>
